# xmcd
#
# Track frame offsets: 
#        150
#        24590
#        45760
#        69712
#        95605
#        123455
#        149730
#        181592
#        205597
#        235025
#
# Disc length: 3510 seconds
#
# Revision: 0
# Processed by: cddbd v1.5.2PL0 Copyright (c) Steve Scherf et al.
# Submitted via: ExactAudioCopy v1.0b3
#
DISCID=820db40a
DTITLE=Yen Khoa - Khoc Tham
DYEAR=1996
DGENRE=
TTITLE0=Tim mai thuong yeu
TTITLE1=Tinh nho mau quen
TTITLE2=Sao em no voi lay chong
TTITLE3=Tinh giong bao
TTITLE4=Mot thuo yeu anh
TTITLE5=Bac trang lua hong
TTITLE6=Ngau hung ru con
TTITLE7=Hinh bong que nha
TTITLE8=Khoc tham
TTITLE9=Em ve qua ben Bac
EXTD=
EXTT0=
EXTT1=
EXTT2=
EXTT3=
EXTT4=
EXTT5=
EXTT6=
EXTT7=
EXTT8=
EXTT9=
PLAYORDER=
